<?xml version="1.0" encoding="UTF-8" standalone="no"?>
<!DOCTYPE svg PUBLIC "-//W3C//DTD SVG 1.1//EN"
 "http://www.w3.org/Graphics/SVG/1.1/DTD/svg11.dtd">
<!-- Generated by graphviz version 12.2.1 (0)
 -->
<!-- Title: G Pages: 1 -->
<svg width="797pt" height="620pt"
 viewBox="0.00 0.00 797.09 620.00" xmlns="http://www.w3.org/2000/svg" xmlns:xlink="http://www.w3.org/1999/xlink">
<g id="graph0" class="graph" transform="scale(1 1) rotate(0) translate(4 616)">
<title>G</title>
<polygon fill="white" stroke="none" points="-4,4 -4,-616 793.09,-616 793.09,4 -4,4"/>
<!-- xq1cs65ic3m0qdpwcjvdgd7yfq8c3ssv&#45;pokemonsay&#45;1.0.0 -->
<g id="node1" class="node">
<title>xq1cs65ic3m0qdpwcjvdgd7yfq8c3ssv&#45;pokemonsay&#45;1.0.0</title>
<polygon fill="#ff0000" stroke="black" points="283.84,-36 138.84,-36 138.84,0 283.84,0 283.84,-36"/>
<text text-anchor="middle" x="211.34" y="-13.32" font-family="Times,serif" font-size="14.00">pokemonsay&#45;1.0.0</text>
</g>
<!-- 58br4vk3q5akf4g8lx0pqzfhn47k3j8d&#45;bash&#45;5.2p37 -->
<g id="node2" class="node">
<title>58br4vk3q5akf4g8lx0pqzfhn47k3j8d&#45;bash&#45;5.2p37</title>
<polygon fill="#ff0000" stroke="black" points="109.22,-180 5.47,-180 5.47,-144 109.22,-144 109.22,-180"/>
<text text-anchor="middle" x="57.34" y="-157.32" font-family="Times,serif" font-size="14.00">bash&#45;5.2p37</text>
</g>
<!-- 58br4vk3q5akf4g8lx0pqzfhn47k3j8d&#45;bash&#45;5.2p37&#45;&gt;xq1cs65ic3m0qdpwcjvdgd7yfq8c3ssv&#45;pokemonsay&#45;1.0.0 -->
<g id="edge1" class="edge">
<title>58br4vk3q5akf4g8lx0pqzfhn47k3j8d&#45;bash&#45;5.2p37&#45;&gt;xq1cs65ic3m0qdpwcjvdgd7yfq8c3ssv&#45;pokemonsay&#45;1.0.0</title>
<path fill="none" stroke="black" d="M63.53,-143.64C71.22,-124.13 85.99,-92.5 107.34,-72 120.29,-59.56 136.74,-49.39 152.7,-41.4"/>
<polygon fill="black" stroke="black" points="154.19,-44.57 161.72,-37.11 151.18,-38.24 154.19,-44.57"/>
</g>
<!-- ixskg19qvf8gfwbdlajc4498c1km1jyf&#45;cowsay&#45;3.8.4 -->
<g id="node3" class="node">
<title>ixskg19qvf8gfwbdlajc4498c1km1jyf&#45;cowsay&#45;3.8.4</title>
<polygon fill="#ff0000" stroke="black" points="224.47,-108 116.22,-108 116.22,-72 224.47,-72 224.47,-108"/>
<text text-anchor="middle" x="170.34" y="-85.33" font-family="Times,serif" font-size="14.00">cowsay&#45;3.8.4</text>
</g>
<!-- 58br4vk3q5akf4g8lx0pqzfhn47k3j8d&#45;bash&#45;5.2p37&#45;&gt;ixskg19qvf8gfwbdlajc4498c1km1jyf&#45;cowsay&#45;3.8.4 -->
<g id="edge6" class="edge">
<title>58br4vk3q5akf4g8lx0pqzfhn47k3j8d&#45;bash&#45;5.2p37&#45;&gt;ixskg19qvf8gfwbdlajc4498c1km1jyf&#45;cowsay&#45;3.8.4</title>
<path fill="none" stroke="burlywood" d="M85.57,-143.52C99.83,-134.68 117.33,-123.84 132.73,-114.3"/>
<polygon fill="burlywood" stroke="burlywood" points="134.54,-117.3 141.19,-109.06 130.85,-111.35 134.54,-117.3"/>
</g>
<!-- ixskg19qvf8gfwbdlajc4498c1km1jyf&#45;cowsay&#45;3.8.4&#45;&gt;xq1cs65ic3m0qdpwcjvdgd7yfq8c3ssv&#45;pokemonsay&#45;1.0.0 -->
<g id="edge2" class="edge">
<title>ixskg19qvf8gfwbdlajc4498c1km1jyf&#45;cowsay&#45;3.8.4&#45;&gt;xq1cs65ic3m0qdpwcjvdgd7yfq8c3ssv&#45;pokemonsay&#45;1.0.0</title>
<path fill="none" stroke="red" d="M180.48,-71.7C185.05,-63.9 190.55,-54.51 195.63,-45.83"/>
<polygon fill="red" stroke="red" points="198.53,-47.81 200.56,-37.41 192.49,-44.27 198.53,-47.81"/>
</g>
<!-- xq5f95pp297afc2xjgrmhmf9w631qp7m&#45;findutils&#45;4.10.0 -->
<g id="node4" class="node">
<title>xq5f95pp297afc2xjgrmhmf9w631qp7m&#45;findutils&#45;4.10.0</title>
<polygon fill="#ff0000" stroke="black" points="404.34,-180 280.34,-180 280.34,-144 404.34,-144 404.34,-180"/>
<text text-anchor="middle" x="342.34" y="-157.32" font-family="Times,serif" font-size="14.00">findutils&#45;4.10.0</text>
</g>
<!-- xq5f95pp297afc2xjgrmhmf9w631qp7m&#45;findutils&#45;4.10.0&#45;&gt;xq1cs65ic3m0qdpwcjvdgd7yfq8c3ssv&#45;pokemonsay&#45;1.0.0 -->
<g id="edge3" class="edge">
<title>xq5f95pp297afc2xjgrmhmf9w631qp7m&#45;findutils&#45;4.10.0&#45;&gt;xq1cs65ic3m0qdpwcjvdgd7yfq8c3ssv&#45;pokemonsay&#45;1.0.0</title>
<path fill="none" stroke="green" d="M328.25,-143.51C313.35,-125.24 288.91,-95.96 266.34,-72 257.59,-62.71 247.65,-52.91 238.65,-44.3"/>
<polygon fill="green" stroke="green" points="241.14,-41.84 231.47,-37.51 236.33,-46.93 241.14,-41.84"/>
</g>
<!-- yh6qg1nsi5h2xblcr67030pz58fsaxx3&#45;coreutils&#45;9.6 -->
<g id="node5" class="node">
<title>yh6qg1nsi5h2xblcr67030pz58fsaxx3&#45;coreutils&#45;9.6</title>
<polygon fill="#ff0000" stroke="black" points="393.97,-252 288.72,-252 288.72,-216 393.97,-216 393.97,-252"/>
<text text-anchor="middle" x="341.34" y="-229.32" font-family="Times,serif" font-size="14.00">coreutils&#45;9.6</text>
</g>
<!-- yh6qg1nsi5h2xblcr67030pz58fsaxx3&#45;coreutils&#45;9.6&#45;&gt;xq1cs65ic3m0qdpwcjvdgd7yfq8c3ssv&#45;pokemonsay&#45;1.0.0 -->
<g id="edge4" class="edge">
<title>yh6qg1nsi5h2xblcr67030pz58fsaxx3&#45;coreutils&#45;9.6&#45;&gt;xq1cs65ic3m0qdpwcjvdgd7yfq8c3ssv&#45;pokemonsay&#45;1.0.0</title>
<path fill="none" stroke="blue" d="M310.79,-215.6C297.12,-206.5 281.77,-194.28 271.34,-180 241.34,-138.9 251.55,-119.52 233.34,-72 230.16,-63.69 226.51,-54.72 223.12,-46.56"/>
<polygon fill="blue" stroke="blue" points="226.41,-45.35 219.3,-37.48 219.95,-48.06 226.41,-45.35"/>
</g>
<!-- yh6qg1nsi5h2xblcr67030pz58fsaxx3&#45;coreutils&#45;9.6&#45;&gt;xq5f95pp297afc2xjgrmhmf9w631qp7m&#45;findutils&#45;4.10.0 -->
<g id="edge17" class="edge">
<title>yh6qg1nsi5h2xblcr67030pz58fsaxx3&#45;coreutils&#45;9.6&#45;&gt;xq5f95pp297afc2xjgrmhmf9w631qp7m&#45;findutils&#45;4.10.0</title>
<path fill="none" stroke="magenta" d="M341.59,-215.7C341.69,-208.41 341.82,-199.73 341.94,-191.54"/>
<polygon fill="magenta" stroke="magenta" points="345.43,-191.67 342.08,-181.62 338.43,-191.57 345.43,-191.67"/>
</g>
<!-- 8v0r6qxs5cps7cgcjp215895wja6k0by&#45;perl&#45;5.40.0 -->
<g id="node7" class="node">
<title>8v0r6qxs5cps7cgcjp215895wja6k0by&#45;perl&#45;5.40.0</title>
<polygon fill="#ff0000" stroke="black" points="221.34,-180 127.34,-180 127.34,-144 221.34,-144 221.34,-180"/>
<text text-anchor="middle" x="174.34" y="-157.32" font-family="Times,serif" font-size="14.00">perl&#45;5.40.0</text>
</g>
<!-- yh6qg1nsi5h2xblcr67030pz58fsaxx3&#45;coreutils&#45;9.6&#45;&gt;8v0r6qxs5cps7cgcjp215895wja6k0by&#45;perl&#45;5.40.0 -->
<g id="edge11" class="edge">
<title>yh6qg1nsi5h2xblcr67030pz58fsaxx3&#45;coreutils&#45;9.6&#45;&gt;8v0r6qxs5cps7cgcjp215895wja6k0by&#45;perl&#45;5.40.0</title>
<path fill="none" stroke="magenta" d="M299.63,-215.52C277.43,-206.21 249.92,-194.68 226.34,-184.79"/>
<polygon fill="magenta" stroke="magenta" points="227.78,-181.6 217.21,-180.97 225.08,-188.06 227.78,-181.6"/>
</g>
<!-- rmy663w9p7xb202rcln4jjzmvivznmz8&#45;glibc&#45;2.40&#45;66 -->
<g id="node6" class="node">
<title>rmy663w9p7xb202rcln4jjzmvivznmz8&#45;glibc&#45;2.40&#45;66</title>
<polygon fill="#ff0000" stroke="black" points="336.84,-468 227.84,-468 227.84,-432 336.84,-432 336.84,-468"/>
<text text-anchor="middle" x="282.34" y="-445.32" font-family="Times,serif" font-size="14.00">glibc&#45;2.40&#45;66</text>
</g>
<!-- rmy663w9p7xb202rcln4jjzmvivznmz8&#45;glibc&#45;2.40&#45;66&#45;&gt;58br4vk3q5akf4g8lx0pqzfhn47k3j8d&#45;bash&#45;5.2p37 -->
<g id="edge5" class="edge">
<title>rmy663w9p7xb202rcln4jjzmvivznmz8&#45;glibc&#45;2.40&#45;66&#45;&gt;58br4vk3q5akf4g8lx0pqzfhn47k3j8d&#45;bash&#45;5.2p37</title>
<path fill="none" stroke="magenta" d="M227.49,-440.49C192.68,-433.06 148.01,-419.63 114.34,-396 48.43,-349.73 30.15,-328.29 4.34,-252 -0.78,-236.84 -1.78,-230.78 4.34,-216 8.67,-205.56 16.16,-196.1 24.16,-188.17"/>
<polygon fill="magenta" stroke="magenta" points="26.45,-190.82 31.47,-181.49 21.73,-185.65 26.45,-190.82"/>
</g>
<!-- rmy663w9p7xb202rcln4jjzmvivznmz8&#45;glibc&#45;2.40&#45;66&#45;&gt;xq5f95pp297afc2xjgrmhmf9w631qp7m&#45;findutils&#45;4.10.0 -->
<g id="edge16" class="edge">
<title>rmy663w9p7xb202rcln4jjzmvivznmz8&#45;glibc&#45;2.40&#45;66&#45;&gt;xq5f95pp297afc2xjgrmhmf9w631qp7m&#45;findutils&#45;4.10.0</title>
<path fill="none" stroke="blue" d="M337.31,-443.59C405.96,-433.47 520.22,-404.77 568.34,-324 610.35,-253.5 496.37,-205.53 415.41,-181.33"/>
<polygon fill="blue" stroke="blue" points="416.76,-178.08 406.18,-178.64 414.8,-184.8 416.76,-178.08"/>
</g>
<!-- rmy663w9p7xb202rcln4jjzmvivznmz8&#45;glibc&#45;2.40&#45;66&#45;&gt;yh6qg1nsi5h2xblcr67030pz58fsaxx3&#45;coreutils&#45;9.6 -->
<g id="edge22" class="edge">
<title>rmy663w9p7xb202rcln4jjzmvivznmz8&#45;glibc&#45;2.40&#45;66&#45;&gt;yh6qg1nsi5h2xblcr67030pz58fsaxx3&#45;coreutils&#45;9.6</title>
<path fill="none" stroke="blue" d="M328.34,-431.74C343.89,-423.43 359.54,-411.77 368.34,-396 392.03,-353.58 371.88,-295.76 355.99,-262.2"/>
<polygon fill="blue" stroke="blue" points="359.28,-260.97 351.71,-253.57 353.01,-264.08 359.28,-260.97"/>
</g>
<!-- rmy663w9p7xb202rcln4jjzmvivznmz8&#45;glibc&#45;2.40&#45;66&#45;&gt;8v0r6qxs5cps7cgcjp215895wja6k0by&#45;perl&#45;5.40.0 -->
<g id="edge9" class="edge">
<title>rmy663w9p7xb202rcln4jjzmvivznmz8&#45;glibc&#45;2.40&#45;66&#45;&gt;8v0r6qxs5cps7cgcjp215895wja6k0by&#45;perl&#45;5.40.0</title>
<path fill="none" stroke="green" d="M274.36,-431.8C263.39,-407.87 243.31,-363.08 228.34,-324 210.69,-277.9 193.03,-223.23 182.92,-190.92"/>
<polygon fill="green" stroke="green" points="186.31,-190.04 180,-181.53 179.63,-192.12 186.31,-190.04"/>
</g>
<!-- ll9dm3r87v4r46a0km0zck4968m60vys&#45;libxcrypt&#45;4.4.38 -->
<g id="node8" class="node">
<title>ll9dm3r87v4r46a0km0zck4968m60vys&#45;libxcrypt&#45;4.4.38</title>
<polygon fill="#ff0000" stroke="black" points="142.97,-252 13.72,-252 13.72,-216 142.97,-216 142.97,-252"/>
<text text-anchor="middle" x="78.34" y="-229.32" font-family="Times,serif" font-size="14.00">libxcrypt&#45;4.4.38</text>
</g>
<!-- rmy663w9p7xb202rcln4jjzmvivznmz8&#45;glibc&#45;2.40&#45;66&#45;&gt;ll9dm3r87v4r46a0km0zck4968m60vys&#45;libxcrypt&#45;4.4.38 -->
<g id="edge12" class="edge">
<title>rmy663w9p7xb202rcln4jjzmvivznmz8&#45;glibc&#45;2.40&#45;66&#45;&gt;ll9dm3r87v4r46a0km0zck4968m60vys&#45;libxcrypt&#45;4.4.38</title>
<path fill="none" stroke="burlywood" d="M229.3,-431.65C182.76,-413.2 118.26,-378.97 90.34,-324 80.89,-305.39 78.04,-281.9 77.48,-263.73"/>
<polygon fill="burlywood" stroke="burlywood" points="80.98,-263.88 77.4,-253.9 73.98,-263.93 80.98,-263.88"/>
</g>
<!-- xijpnhg8mg0g4lahwrxdwylpcq7249gc&#45;zlib&#45;1.3.1 -->
<g id="node9" class="node">
<title>xijpnhg8mg0g4lahwrxdwylpcq7249gc&#45;zlib&#45;1.3.1</title>
<polygon fill="#ff0000" stroke="black" points="181.34,-324 99.34,-324 99.34,-288 181.34,-288 181.34,-324"/>
<text text-anchor="middle" x="140.34" y="-301.32" font-family="Times,serif" font-size="14.00">zlib&#45;1.3.1</text>
</g>
<!-- rmy663w9p7xb202rcln4jjzmvivznmz8&#45;glibc&#45;2.40&#45;66&#45;&gt;xijpnhg8mg0g4lahwrxdwylpcq7249gc&#45;zlib&#45;1.3.1 -->
<g id="edge15" class="edge">
<title>rmy663w9p7xb202rcln4jjzmvivznmz8&#45;glibc&#45;2.40&#45;66&#45;&gt;xijpnhg8mg0g4lahwrxdwylpcq7249gc&#45;zlib&#45;1.3.1</title>
<path fill="none" stroke="green" d="M245.37,-431.52C228.79,-422.49 209.77,-410.34 195.34,-396 177.38,-378.15 162.67,-353.35 153,-334.46"/>
<polygon fill="green" stroke="green" points="156.26,-333.16 148.7,-325.74 149.98,-336.26 156.26,-333.16"/>
</g>
<!-- 4izi23kn57b3cw47jddzq14wcv01b5y5&#45;acl&#45;2.3.2 -->
<g id="node13" class="node">
<title>4izi23kn57b3cw47jddzq14wcv01b5y5&#45;acl&#45;2.3.2</title>
<polygon fill="#ff0000" stroke="black" points="313.72,-324 236.97,-324 236.97,-288 313.72,-288 313.72,-324"/>
<text text-anchor="middle" x="275.34" y="-301.32" font-family="Times,serif" font-size="14.00">acl&#45;2.3.2</text>
</g>
<!-- rmy663w9p7xb202rcln4jjzmvivznmz8&#45;glibc&#45;2.40&#45;66&#45;&gt;4izi23kn57b3cw47jddzq14wcv01b5y5&#45;acl&#45;2.3.2 -->
<g id="edge24" class="edge">
<title>rmy663w9p7xb202rcln4jjzmvivznmz8&#45;glibc&#45;2.40&#45;66&#45;&gt;4izi23kn57b3cw47jddzq14wcv01b5y5&#45;acl&#45;2.3.2</title>
<path fill="none" stroke="burlywood" d="M275.69,-431.63C272.14,-421.42 268.14,-408.17 266.34,-396 263.38,-375.9 265.79,-353.11 268.86,-335.62"/>
<polygon fill="burlywood" stroke="burlywood" points="272.27,-336.42 270.75,-325.94 265.4,-335.09 272.27,-336.42"/>
</g>
<!-- pn0rk0wsmkjazbz380y8xzb99n8sr07g&#45;attr&#45;2.5.2 -->
<g id="node14" class="node">
<title>pn0rk0wsmkjazbz380y8xzb99n8sr07g&#45;attr&#45;2.5.2</title>
<polygon fill="#ff0000" stroke="black" points="359.09,-396 275.59,-396 275.59,-360 359.09,-360 359.09,-396"/>
<text text-anchor="middle" x="317.34" y="-373.32" font-family="Times,serif" font-size="14.00">attr&#45;2.5.2</text>
</g>
<!-- rmy663w9p7xb202rcln4jjzmvivznmz8&#45;glibc&#45;2.40&#45;66&#45;&gt;pn0rk0wsmkjazbz380y8xzb99n8sr07g&#45;attr&#45;2.5.2 -->
<g id="edge25" class="edge">
<title>rmy663w9p7xb202rcln4jjzmvivznmz8&#45;glibc&#45;2.40&#45;66&#45;&gt;pn0rk0wsmkjazbz380y8xzb99n8sr07g&#45;attr&#45;2.5.2</title>
<path fill="none" stroke="black" d="M290.99,-431.7C294.81,-424.07 299.39,-414.92 303.65,-406.4"/>
<polygon fill="black" stroke="black" points="306.77,-407.97 308.11,-397.46 300.51,-404.84 306.77,-407.97"/>
</g>
<!-- rlpanzl29s3gv3wgs5720q04rbgysl8a&#45;gmp&#45;with&#45;cxx&#45;6.3.0 -->
<g id="node15" class="node">
<title>rlpanzl29s3gv3wgs5720q04rbgysl8a&#45;gmp&#45;with&#45;cxx&#45;6.3.0</title>
<polygon fill="#ff0000" stroke="black" points="559.22,-324 407.47,-324 407.47,-288 559.22,-288 559.22,-324"/>
<text text-anchor="middle" x="483.34" y="-301.32" font-family="Times,serif" font-size="14.00">gmp&#45;with&#45;cxx&#45;6.3.0</text>
</g>
<!-- rmy663w9p7xb202rcln4jjzmvivznmz8&#45;glibc&#45;2.40&#45;66&#45;&gt;rlpanzl29s3gv3wgs5720q04rbgysl8a&#45;gmp&#45;with&#45;cxx&#45;6.3.0 -->
<g id="edge27" class="edge">
<title>rmy663w9p7xb202rcln4jjzmvivznmz8&#45;glibc&#45;2.40&#45;66&#45;&gt;rlpanzl29s3gv3wgs5720q04rbgysl8a&#45;gmp&#45;with&#45;cxx&#45;6.3.0</title>
<path fill="none" stroke="green" d="M333.41,-431.58C355.42,-422.76 380.77,-410.77 401.34,-396 425.84,-378.42 448.64,-352.58 463.95,-333.26"/>
<polygon fill="green" stroke="green" points="466.55,-335.62 469.91,-325.57 461.02,-331.33 466.55,-335.62"/>
</g>
<!-- ik84lbv5jvjm1xxvdl8mhg52ry3xycvm&#45;gcc&#45;14&#45;20241116&#45;lib -->
<g id="node16" class="node">
<title>ik84lbv5jvjm1xxvdl8mhg52ry3xycvm&#45;gcc&#45;14&#45;20241116&#45;lib</title>
<polygon fill="#ff0000" stroke="black" points="777.09,-396 615.59,-396 615.59,-360 777.09,-360 777.09,-396"/>
<text text-anchor="middle" x="696.34" y="-373.32" font-family="Times,serif" font-size="14.00">gcc&#45;14&#45;20241116&#45;lib</text>
</g>
<!-- rmy663w9p7xb202rcln4jjzmvivznmz8&#45;glibc&#45;2.40&#45;66&#45;&gt;ik84lbv5jvjm1xxvdl8mhg52ry3xycvm&#45;gcc&#45;14&#45;20241116&#45;lib -->
<g id="edge29" class="edge">
<title>rmy663w9p7xb202rcln4jjzmvivznmz8&#45;glibc&#45;2.40&#45;66&#45;&gt;ik84lbv5jvjm1xxvdl8mhg52ry3xycvm&#45;gcc&#45;14&#45;20241116&#45;lib</title>
<path fill="none" stroke="magenta" d="M337.13,-440.11C400.71,-429.74 508.68,-411.99 601.34,-396 602.19,-395.85 603.05,-395.71 603.91,-395.56"/>
<polygon fill="magenta" stroke="magenta" points="604.51,-399.01 613.76,-393.84 603.31,-392.11 604.51,-399.01"/>
</g>
<!-- 8v0r6qxs5cps7cgcjp215895wja6k0by&#45;perl&#45;5.40.0&#45;&gt;ixskg19qvf8gfwbdlajc4498c1km1jyf&#45;cowsay&#45;3.8.4 -->
<g id="edge7" class="edge">
<title>8v0r6qxs5cps7cgcjp215895wja6k0by&#45;perl&#45;5.40.0&#45;&gt;ixskg19qvf8gfwbdlajc4498c1km1jyf&#45;cowsay&#45;3.8.4</title>
<path fill="none" stroke="black" d="M173.35,-143.7C172.94,-136.41 172.44,-127.73 171.97,-119.54"/>
<polygon fill="black" stroke="black" points="175.47,-119.4 171.41,-109.62 168.48,-119.8 175.47,-119.4"/>
</g>
<!-- ll9dm3r87v4r46a0km0zck4968m60vys&#45;libxcrypt&#45;4.4.38&#45;&gt;8v0r6qxs5cps7cgcjp215895wja6k0by&#45;perl&#45;5.40.0 -->
<g id="edge8" class="edge">
<title>ll9dm3r87v4r46a0km0zck4968m60vys&#45;libxcrypt&#45;4.4.38&#45;&gt;8v0r6qxs5cps7cgcjp215895wja6k0by&#45;perl&#45;5.40.0</title>
<path fill="none" stroke="red" d="M102.07,-215.7C113.96,-207.03 128.54,-196.4 141.48,-186.96"/>
<polygon fill="red" stroke="red" points="143.31,-189.96 149.33,-181.24 139.19,-184.3 143.31,-189.96"/>
</g>
<!-- xijpnhg8mg0g4lahwrxdwylpcq7249gc&#45;zlib&#45;1.3.1&#45;&gt;8v0r6qxs5cps7cgcjp215895wja6k0by&#45;perl&#45;5.40.0 -->
<g id="edge10" class="edge">
<title>xijpnhg8mg0g4lahwrxdwylpcq7249gc&#45;zlib&#45;1.3.1&#45;&gt;8v0r6qxs5cps7cgcjp215895wja6k0by&#45;perl&#45;5.40.0</title>
<path fill="none" stroke="blue" d="M144.51,-287.59C150.28,-263.5 160.75,-219.75 167.63,-191.03"/>
<polygon fill="blue" stroke="blue" points="170.97,-192.12 169.89,-181.58 164.16,-190.49 170.97,-192.12"/>
</g>
<!-- m2047a1xwgblgkrnbxz0yilkaqfrbf2b&#45;xgcc&#45;14&#45;20241116&#45;libgcc -->
<g id="node10" class="node">
<title>m2047a1xwgblgkrnbxz0yilkaqfrbf2b&#45;xgcc&#45;14&#45;20241116&#45;libgcc</title>
<polygon fill="#ff0000" stroke="black" points="295.22,-540 101.47,-540 101.47,-504 295.22,-504 295.22,-540"/>
<text text-anchor="middle" x="198.34" y="-517.33" font-family="Times,serif" font-size="14.00">xgcc&#45;14&#45;20241116&#45;libgcc</text>
</g>
<!-- m2047a1xwgblgkrnbxz0yilkaqfrbf2b&#45;xgcc&#45;14&#45;20241116&#45;libgcc&#45;&gt;rmy663w9p7xb202rcln4jjzmvivznmz8&#45;glibc&#45;2.40&#45;66 -->
<g id="edge13" class="edge">
<title>m2047a1xwgblgkrnbxz0yilkaqfrbf2b&#45;xgcc&#45;14&#45;20241116&#45;libgcc&#45;&gt;rmy663w9p7xb202rcln4jjzmvivznmz8&#45;glibc&#45;2.40&#45;66</title>
<path fill="none" stroke="black" d="M219.11,-503.7C229.3,-495.2 241.77,-484.81 252.93,-475.51"/>
<polygon fill="black" stroke="black" points="254.92,-478.41 260.36,-469.32 250.44,-473.03 254.92,-478.41"/>
</g>
<!-- y2xxdhhjy2l5mgpm3d0rw2wxmpd61my4&#45;libidn2&#45;2.3.7 -->
<g id="node11" class="node">
<title>y2xxdhhjy2l5mgpm3d0rw2wxmpd61my4&#45;libidn2&#45;2.3.7</title>
<polygon fill="#ff0000" stroke="black" points="419.34,-540 313.34,-540 313.34,-504 419.34,-504 419.34,-540"/>
<text text-anchor="middle" x="366.34" y="-517.33" font-family="Times,serif" font-size="14.00">libidn2&#45;2.3.7</text>
</g>
<!-- y2xxdhhjy2l5mgpm3d0rw2wxmpd61my4&#45;libidn2&#45;2.3.7&#45;&gt;rmy663w9p7xb202rcln4jjzmvivznmz8&#45;glibc&#45;2.40&#45;66 -->
<g id="edge14" class="edge">
<title>y2xxdhhjy2l5mgpm3d0rw2wxmpd61my4&#45;libidn2&#45;2.3.7&#45;&gt;rmy663w9p7xb202rcln4jjzmvivznmz8&#45;glibc&#45;2.40&#45;66</title>
<path fill="none" stroke="red" d="M345.58,-503.7C335.38,-495.2 322.92,-484.81 311.76,-475.51"/>
<polygon fill="red" stroke="red" points="314.25,-473.03 304.32,-469.32 309.76,-478.41 314.25,-473.03"/>
</g>
<!-- nj19yxkqf0iqjqn4x6dbglsvqk5bgsbs&#45;libunistring&#45;1.3 -->
<g id="node12" class="node">
<title>nj19yxkqf0iqjqn4x6dbglsvqk5bgsbs&#45;libunistring&#45;1.3</title>
<polygon fill="#ff0000" stroke="black" points="429.47,-612 303.22,-612 303.22,-576 429.47,-576 429.47,-612"/>
<text text-anchor="middle" x="366.34" y="-589.33" font-family="Times,serif" font-size="14.00">libunistring&#45;1.3</text>
</g>
<!-- nj19yxkqf0iqjqn4x6dbglsvqk5bgsbs&#45;libunistring&#45;1.3&#45;&gt;y2xxdhhjy2l5mgpm3d0rw2wxmpd61my4&#45;libidn2&#45;2.3.7 -->
<g id="edge18" class="edge">
<title>nj19yxkqf0iqjqn4x6dbglsvqk5bgsbs&#45;libunistring&#45;1.3&#45;&gt;y2xxdhhjy2l5mgpm3d0rw2wxmpd61my4&#45;libidn2&#45;2.3.7</title>
<path fill="none" stroke="burlywood" d="M366.34,-575.7C366.34,-568.41 366.34,-559.73 366.34,-551.54"/>
<polygon fill="burlywood" stroke="burlywood" points="369.84,-551.62 366.34,-541.62 362.84,-551.62 369.84,-551.62"/>
</g>
<!-- 4izi23kn57b3cw47jddzq14wcv01b5y5&#45;acl&#45;2.3.2&#45;&gt;yh6qg1nsi5h2xblcr67030pz58fsaxx3&#45;coreutils&#45;9.6 -->
<g id="edge19" class="edge">
<title>4izi23kn57b3cw47jddzq14wcv01b5y5&#45;acl&#45;2.3.2&#45;&gt;yh6qg1nsi5h2xblcr67030pz58fsaxx3&#45;coreutils&#45;9.6</title>
<path fill="none" stroke="black" d="M291.66,-287.7C299.41,-279.47 308.83,-269.48 317.38,-260.42"/>
<polygon fill="black" stroke="black" points="319.86,-262.88 324.18,-253.21 314.77,-258.08 319.86,-262.88"/>
</g>
<!-- pn0rk0wsmkjazbz380y8xzb99n8sr07g&#45;attr&#45;2.5.2&#45;&gt;yh6qg1nsi5h2xblcr67030pz58fsaxx3&#45;coreutils&#45;9.6 -->
<g id="edge20" class="edge">
<title>pn0rk0wsmkjazbz380y8xzb99n8sr07g&#45;attr&#45;2.5.2&#45;&gt;yh6qg1nsi5h2xblcr67030pz58fsaxx3&#45;coreutils&#45;9.6</title>
<path fill="none" stroke="red" d="M320.29,-359.59C324.34,-335.61 331.69,-292.14 336.54,-263.42"/>
<polygon fill="red" stroke="red" points="339.98,-264.05 338.2,-253.6 333.08,-262.88 339.98,-264.05"/>
</g>
<!-- pn0rk0wsmkjazbz380y8xzb99n8sr07g&#45;attr&#45;2.5.2&#45;&gt;4izi23kn57b3cw47jddzq14wcv01b5y5&#45;acl&#45;2.3.2 -->
<g id="edge23" class="edge">
<title>pn0rk0wsmkjazbz380y8xzb99n8sr07g&#45;attr&#45;2.5.2&#45;&gt;4izi23kn57b3cw47jddzq14wcv01b5y5&#45;acl&#45;2.3.2</title>
<path fill="none" stroke="magenta" d="M306.96,-359.7C302.28,-351.9 296.65,-342.51 291.44,-333.83"/>
<polygon fill="magenta" stroke="magenta" points="294.53,-332.18 286.38,-325.4 288.53,-335.78 294.53,-332.18"/>
</g>
<!-- rlpanzl29s3gv3wgs5720q04rbgysl8a&#45;gmp&#45;with&#45;cxx&#45;6.3.0&#45;&gt;yh6qg1nsi5h2xblcr67030pz58fsaxx3&#45;coreutils&#45;9.6 -->
<g id="edge21" class="edge">
<title>rlpanzl29s3gv3wgs5720q04rbgysl8a&#45;gmp&#45;with&#45;cxx&#45;6.3.0&#45;&gt;yh6qg1nsi5h2xblcr67030pz58fsaxx3&#45;coreutils&#45;9.6</title>
<path fill="none" stroke="green" d="M447.88,-287.52C429.27,-278.34 406.27,-267.01 386.42,-257.22"/>
<polygon fill="green" stroke="green" points="388.23,-254.21 377.71,-252.93 385.14,-260.49 388.23,-254.21"/>
</g>
<!-- ik84lbv5jvjm1xxvdl8mhg52ry3xycvm&#45;gcc&#45;14&#45;20241116&#45;lib&#45;&gt;rlpanzl29s3gv3wgs5720q04rbgysl8a&#45;gmp&#45;with&#45;cxx&#45;6.3.0 -->
<g id="edge26" class="edge">
<title>ik84lbv5jvjm1xxvdl8mhg52ry3xycvm&#45;gcc&#45;14&#45;20241116&#45;lib&#45;&gt;rlpanzl29s3gv3wgs5720q04rbgysl8a&#45;gmp&#45;with&#45;cxx&#45;6.3.0</title>
<path fill="none" stroke="red" d="M643.14,-359.52C613.93,-349.92 577.52,-337.95 546.83,-327.86"/>
<polygon fill="red" stroke="red" points="548.26,-324.65 537.67,-324.85 546.08,-331.3 548.26,-324.65"/>
</g>
<!-- id29wx2vp10d5xi6wzsykd4rb9ssaikx&#45;gcc&#45;14&#45;20241116&#45;libgcc -->
<g id="node17" class="node">
<title>id29wx2vp10d5xi6wzsykd4rb9ssaikx&#45;gcc&#45;14&#45;20241116&#45;libgcc</title>
<polygon fill="#ff0000" stroke="black" points="789.09,-468 603.59,-468 603.59,-432 789.09,-432 789.09,-468"/>
<text text-anchor="middle" x="696.34" y="-445.32" font-family="Times,serif" font-size="14.00">gcc&#45;14&#45;20241116&#45;libgcc</text>
</g>
<!-- id29wx2vp10d5xi6wzsykd4rb9ssaikx&#45;gcc&#45;14&#45;20241116&#45;libgcc&#45;&gt;ik84lbv5jvjm1xxvdl8mhg52ry3xycvm&#45;gcc&#45;14&#45;20241116&#45;lib -->
<g id="edge28" class="edge">
<title>id29wx2vp10d5xi6wzsykd4rb9ssaikx&#45;gcc&#45;14&#45;20241116&#45;libgcc&#45;&gt;ik84lbv5jvjm1xxvdl8mhg52ry3xycvm&#45;gcc&#45;14&#45;20241116&#45;lib</title>
<path fill="none" stroke="blue" d="M696.34,-431.7C696.34,-424.41 696.34,-415.73 696.34,-407.54"/>
<polygon fill="blue" stroke="blue" points="699.84,-407.62 696.34,-397.62 692.84,-407.62 699.84,-407.62"/>
</g>
</g>
</svg>
